
<svg version="1.1" id="Layer_1" xmlns="http://www.w3.org/2000/svg" xmlns:xlink="http://www.w3.org/1999/xlink" x="0px" y="0px"viewBox="0 0 64 64" style="enable-background:new 0 0 64 64;" xml:space="preserve"><path class="st0" d="M6,25.2L6,25.2c0,4.6,0.4,9.1,1.1,13.6l0.3,1.6c0.4,2.4,1.3,4.7,2.7,6.8l4.7,7.1c0.8,1.2,1,2.6,0.7,4c-0.2,0.8,0.4,1.6,1.2,1.8c0.1,0,0.2,0,0.3,0h6.5c2.5,0,4.5-2,4.5-4.5l0,0v-7.5c0-2.8-0.7-5.6-2.1-8.1c-1.6-2.7-3.9-4.9-6.7-6.2l-2.9-1.5c-0.2-0.1-0.4-0.1-0.6-0.2h-0.2c-0.8,0-1.4,0.7-1.4,1.4c0,0.4,0.1,0.7,0.4,1l5.2,5.2c0.5,0.5,0.5,1.3,0.1,1.9c-0.5,0.6-1.4,0.7-2,0.2c0,0-0.1-0.1-0.1-0.1l-3.9-3.8c-1.1-1.1-2-2.5-2.5-4l-3-8.9C8,24.2,7.3,24,6.7,24.2C6.3,24.4,6,24.7,6,25.2z"/><path class="st0" d="M56.6,40.3l0.3-1.6c0.8-4.5,1.1-9,1.1-13.6l0,0c0-0.6-0.5-1.2-1.2-1.2c-0.5,0-0.9,0.3-1.1,0.8l-3,8.9c-0.5,1.5-1.4,2.9-2.5,4l-3.8,3.8c-0.5,0.6-1.4,0.6-2,0.1c0,0-0.1-0.1-0.1-0.1c-0.5-0.6-0.4-1.4,0.1-1.9l5.2-5.2c0.5-0.6,0.5-1.5,0-2c-0.3-0.3-0.6-0.4-1-0.4h-0.2c-0.2,0-0.4,0.1-0.6,0.2l-2.9,1.5c-2.8,1.4-5.1,3.5-6.7,6.2c-1.4,2.5-2.1,5.3-2.1,8.1v8c0,2.3,1.9,4.1,4.1,4.1h7c0.8,0,1.5-0.7,1.5-1.5c0-0.1,0-0.2,0-0.4c-0.3-1.4-0.1-2.8,0.7-4l4.7-7.1C55.3,45,56.2,42.7,56.6,40.3z"/><path class="st0" d="M44,18.3V8.5l0,0c0-0.5-0.3-0.9-0.7-1L32.8,4.1C32.6,4,32.3,4,32,4l0,0c-0.3,0-0.6,0-0.9,0.1L20.7,7.5c-0.4,0.1-0.7,0.5-0.7,1v9.8C20,25,24.6,30.6,31.1,32c0.3,0.1,0.6,0.1,0.9,0.1l0,0c0.3,0,0.6,0,0.9-0.1C39.4,30.6,44,24.9,44,18.3zM40,18.3c0,4.7-3.3,8.7-7.9,9.7H32V18h-8v-7.3l8-2.6V18h8V18.3z"/></svg>
